<svg width="15" height="15" viewBox="0 0 15 15" fill="none" xmlns="http://www.w3.org/2000/svg">
<path d="M8.3362 2.19585L9.4362 4.39585C9.5862 4.7021 9.9862 4.99585 10.3237 5.0521L12.3174 5.38335C13.5924 5.59585 13.8924 6.52085 12.9737 7.43335L11.4237 8.98335C11.1612 9.24585 11.0174 9.7521 11.0987 10.1146L11.5424 12.0333C11.8924 13.5521 11.0862 14.1396 9.74245 13.3459L7.8737 12.2396C7.5362 12.0396 6.97995 12.0396 6.6362 12.2396L4.76745 13.3459C3.42995 14.1396 2.61745 13.5459 2.96745 12.0333L3.4112 10.1146C3.49245 9.7521 3.3487 9.24585 3.0862 8.98335L1.5362 7.43335C0.623698 6.52085 0.917448 5.59585 2.19245 5.38335L4.1862 5.0521C4.51745 4.99585 4.91745 4.7021 5.06745 4.39585L6.16745 2.19585C6.76745 1.0021 7.74245 1.0021 8.3362 2.19585Z" stroke="#808080" stroke-linecap="round" stroke-linejoin="round"/>
</svg>
