<svg width="14" height="15" viewBox="0 0 14 15" fill="none" xmlns="http://www.w3.org/2000/svg">
<path d="M5.02007 13.96L6.57341 12.6533C6.80674 12.4533 7.19341 12.4533 7.42674 12.6533L8.98007 13.96C9.34007 14.14 9.78008 13.96 9.91341 13.5733L10.2067 12.6867C10.2801 12.4733 10.2067 12.16 10.0467 12L8.53341 10.48C8.42007 10.3733 8.33341 10.16 8.33341 10.0067V8.10667C8.33341 7.82667 8.54007 7.69333 8.80007 7.8L12.0734 9.21333C12.5867 9.43333 13.0067 9.16 13.0067 8.6V7.74C13.0067 7.29333 12.6734 6.78 12.2601 6.60667L8.53341 5C8.47629 4.97068 8.42781 4.92697 8.39273 4.87319C8.35766 4.81942 8.33721 4.75742 8.33341 4.69333V2.69333C8.33341 2.06667 7.87341 1.32667 7.31341 1.04C7.11341 0.94 6.88007 0.94 6.68007 1.04C6.12008 1.32667 5.66007 2.07333 5.66007 2.7V4.7C5.66007 4.82 5.56674 4.96 5.46007 5.00667L1.74007 6.61333C1.32674 6.78 0.993408 7.29333 0.993408 7.74V8.6C0.993408 9.16 1.41341 9.43333 1.92674 9.21333L5.20007 7.8C5.45341 7.68667 5.66674 7.82667 5.66674 8.10667V10.0067C5.66674 10.16 5.58007 10.3733 5.47341 10.48L3.96007 12C3.80007 12.16 3.72674 12.4667 3.80007 12.6867L4.09341 13.5733C4.21341 13.96 4.65341 14.1467 5.02007 13.96Z" stroke="#565656" stroke-width="1.1" stroke-linecap="round" stroke-linejoin="round"/>
</svg>
